<?xml version="1.0" standalone="no"?>
<!DOCTYPE svg PUBLIC "-//W3C//DTD SVG 20010904//EN"
 "http://www.w3.org/TR/2001/REC-SVG-20010904/DTD/svg10.dtd">
<svg version="1.0" xmlns="http://www.w3.org/2000/svg"
 width="1024.000000pt" height="654.000000pt" viewBox="0 0 1024.000000 654.000000"
 preserveAspectRatio="xMidYMid meet">
<metadata>
Created by potrace 1.16, written by Peter Selinger 2001-2019
</metadata>
<g transform="translate(0.000000,654.000000) scale(0.100000,-0.100000)"
fill="#000000" stroke="none">
<path d="M2825 6354 c-672 -72 -1260 -329 -1763 -769 -259 -227 -481 -504
-660 -824 -38 -66 -72 -118 -77 -114 -4 5 -5 3 -2 -4 4 -6 -7 -42 -24 -80
-123 -271 -205 -549 -256 -868 -26 -159 -26 -711 0 -870 47 -291 120 -552 218
-779 21 -50 39 -96 39 -103 0 -6 6 -18 13 -25 6 -8 26 -40 42 -73 204 -406
560 -823 925 -1085 41 -30 77 -57 80 -60 29 -31 330 -201 465 -261 145 -66
195 -86 255 -105 25 -8 55 -19 68 -25 12 -5 32 -13 45 -18 12 -5 40 -13 62
-16 22 -4 45 -10 50 -15 6 -4 26 -10 45 -13 61 -11 94 -18 125 -27 43 -13 212
-38 335 -50 139 -14 525 -11 670 6 136 15 272 38 355 60 33 9 70 15 83 15 12
0 22 3 22 8 0 6 21 13 48 17 26 4 50 12 54 18 5 8 8 7 8 -2 0 -10 4 -10 16 2
8 9 24 16 34 16 10 0 21 4 24 9 3 5 22 12 42 15 20 4 53 16 75 27 21 12 44 22
51 23 32 7 355 163 374 181 6 5 28 19 49 30 22 11 48 28 59 37 10 10 23 15 28
12 4 -3 8 -1 8 4 0 9 106 82 120 82 4 0 11 7 14 16 3 8 10 13 15 10 5 -3 11 1
15 9 3 8 11 15 18 15 7 0 19 9 26 20 7 11 19 20 27 20 8 0 15 4 15 9 0 5 24
27 54 50 30 23 76 63 104 89 27 26 67 63 88 82 21 19 50 49 64 66 14 17 58 69
99 115 116 132 138 159 135 159 -6 0 87 124 98 131 5 3 10 10 9 15 0 10 98
169 117 190 7 8 11 14 8 14 -3 0 6 23 21 50 15 28 31 50 36 50 4 0 6 4 2 9 -3
5 2 16 10 25 9 8 15 19 14 23 -2 14 45 113 54 113 4 0 5 4 2 10 -3 5 -1 10 5
10 6 0 9 4 6 9 -7 11 24 91 36 91 5 0 7 4 4 8 -7 12 19 83 28 75 4 -5 7 -3 5
2 -4 18 13 85 22 85 5 0 8 3 8 8 -1 4 0 9 1 12 1 3 3 14 4 25 5 40 30 125 37
125 4 0 5 9 2 20 -3 11 -1 20 5 20 6 0 8 9 5 20 -3 11 -1 20 3 20 5 0 10 21
12 47 2 26 6 50 10 53 4 3 8 23 10 45 1 22 5 47 9 55 3 8 6 30 6 48 0 17 3 32
7 32 3 0 5 13 2 30 -2 16 0 30 4 30 5 0 9 23 8 50 0 28 2 52 5 54 3 2 4 123 3
268 -4 300 -6 346 -17 371 -4 9 -5 26 -2 37 3 11 2 20 -2 20 -4 0 -8 6 -8 13
-5 63 -12 125 -18 138 -3 9 -7 33 -8 53 -1 20 -6 36 -11 36 -4 0 -6 9 -3 20 3
11 1 23 -5 26 -5 3 -7 12 -4 20 3 7 1 16 -5 20 -6 3 -8 12 -5 19 3 8 0 15 -5
17 -6 2 -12 17 -13 33 -2 17 -8 43 -14 58 -7 15 -11 31 -11 35 1 4 0 10 -1 15
-1 4 -4 12 -5 17 -1 6 -4 12 -5 15 -1 3 -3 8 -4 13 -1 4 -7 17 -14 30 -7 12
-10 27 -7 32 3 6 2 10 -4 10 -8 0 -25 49 -21 65 0 3 -6 13 -15 22 -9 8 -14 21
-11 29 3 7 1 14 -4 16 -4 2 -10 12 -12 23 -1 11 -6 22 -9 25 -15 12 -49 92
-44 100 3 6 2 10 -4 10 -10 0 -27 38 -23 53 1 4 -3 7 -10 7 -6 0 -9 3 -5 6 3
3 -3 16 -14 27 -11 12 -23 33 -26 47 -3 14 -9 27 -12 30 -10 8 -92 141 -94
154 -1 6 -9 16 -17 23 -8 7 -10 13 -5 13 6 0 6 3 -1 8 -13 9 -156 202 -149
202 2 0 -18 23 -45 52 -28 29 -50 55 -50 59 0 4 -22 28 -50 55 -27 27 -50 53
-50 57 0 12 -127 137 -139 137 -5 0 -25 18 -44 40 -19 22 -39 40 -45 40 -6 0
-20 12 -32 28 -12 15 -25 27 -30 27 -4 0 -27 17 -50 38 -23 20 -46 37 -50 37
-5 0 -13 6 -17 13 -4 6 -20 18 -34 25 -15 8 -38 25 -52 38 -14 13 -31 24 -37
24 -5 0 -10 5 -10 10 0 6 -5 10 -11 10 -6 0 -38 18 -70 39 -33 22 -68 43 -79
46 -11 4 -20 10 -20 14 0 5 -20 16 -45 25 -25 10 -45 22 -45 27 0 5 -7 9 -16
9 -9 0 -28 9 -44 20 -15 11 -30 17 -34 13 -3 -3 -6 -1 -6 5 0 7 -7 12 -14 12
-13 0 -130 50 -188 81 -10 5 -23 9 -29 9 -6 0 -25 6 -42 14 -45 20 -177 66
-177 62 0 -2 -28 4 -62 15 -104 32 -226 58 -388 85 -92 15 -646 28 -745 18z
m-548 -1636 l451 -782 -50 -34 c-184 -124 -311 -342 -334 -572 l-7 -70 -903 0
-904 0 0 78 c0 90 23 302 46 417 79 404 259 794 520 1125 99 126 323 343 454
441 104 78 256 179 270 179 3 0 209 -352 457 -782z m2223 736 c213 -132 488
-377 644 -574 274 -346 458 -759 530 -1185 20 -119 36 -281 36 -366 l0 -69
-904 0 -903 0 -7 70 c-23 230 -150 448 -334 572 l-50 34 451 782 c248 430 454
782 457 782 3 0 39 -21 80 -46z m-1275 -1689 c203 -43 358 -199 401 -405 53
-252 -103 -516 -351 -593 -372 -115 -741 215 -661 593 43 204 197 361 396 404
85 19 130 19 215 1z m-423 -1214 c111 -51 181 -65 318 -65 138 0 207 14 319
65 52 24 67 27 77 17 31 -35 896 -1550 888 -1558 -18 -16 -231 -119 -329 -158
-279 -111 -559 -169 -871 -179 -440 -14 -854 76 -1247 273 -62 31 -116 60
-121 64 -9 9 884 1570 899 1570 1 0 31 -13 67 -29z"/>
<path d="M5160 5850 c0 -13 32 -45 53 -53 9 -3 17 -13 17 -21 0 -7 11 -17 25
-20 14 -4 31 -18 37 -31 6 -14 19 -27 30 -31 10 -3 16 -10 13 -15 -3 -5 1 -6
9 -3 9 3 16 1 16 -5 0 -6 7 -11 15 -11 8 0 15 -3 15 -7 0 -5 36 -7 81 -5 44 2
88 0 97 -4 9 -4 19 -8 22 -8 15 -4 38 -24 53 -46 13 -18 17 -46 17 -115 0
-108 13 -140 101 -258 54 -72 63 -89 60 -109 0 -5 5 -8 12 -8 6 -1 37 -40 67
-88 73 -116 110 -152 155 -152 19 0 35 -4 35 -10 0 -6 55 -10 145 -10 90 0
145 4 145 10 0 6 11 10 25 10 14 0 25 -4 25 -10 0 -14 3429 -19 3434 -5 2 6
17 -5 35 -22 l31 -33 0 -1530 c0 -1324 -2 -1535 -15 -1559 -17 -33 -45 -47
-57 -29 -7 12 -12 4 -9 -15 0 -4 -692 -7 -1540 -7 -1024 0 -1538 3 -1534 10 4
7 -70 10 -214 10 -141 0 -221 -4 -221 -10 0 -6 -60 -10 -160 -10 -137 0 -163
-2 -181 -18 -18 -15 -159 -217 -159 -228 0 -6 -102 -148 -110 -154 -4 -3 -22
-31 -39 -63 -29 -53 -31 -65 -31 -157 0 -60 -4 -100 -10 -100 -5 0 -10 -6 -10
-14 0 -19 -30 -43 -31 -25 0 8 -5 5 -10 -6 -9 -19 -17 -21 -105 -17 -65 3 -94
1 -94 -7 0 -6 -7 -11 -15 -11 -8 0 -15 -4 -15 -10 0 -5 -8 -7 -17 -3 -10 3
-15 3 -11 -1 3 -4 -12 -24 -35 -44 -23 -20 -55 -50 -72 -65 -16 -15 -42 -35
-57 -45 -16 -9 -28 -20 -28 -24 0 -4 1125 -8 2499 -8 1791 0 2500 -3 2503 -11
2 -6 14 9 26 34 29 58 30 137 2 162 -11 10 -17 22 -13 28 4 6 -21 8 -72 5 -78
-5 -79 -5 -112 28 -30 31 -32 37 -27 81 4 36 3 44 -5 33 -8 -11 -10 9 -9 75 1
88 2 89 8 30 5 -42 7 -14 7 91 -2 194 3 204 98 204 35 0 67 5 70 10 4 6 15 8
24 5 13 -4 23 6 41 44 l23 50 -7 1750 c-3 994 -10 1760 -15 1774 -15 40 -53
57 -126 57 -52 0 -65 3 -65 16 0 8 -4 13 -9 9 -20 -11 -23 21 -23 238 1 213 5
263 22 252 4 -3 10 2 14 10 3 8 12 12 21 9 8 -3 15 -1 15 5 0 14 52 15 66 1
14 -14 64 12 81 42 25 46 14 129 -23 165 -10 11 -503 13 -2508 13 -1657 0
-2496 -3 -2496 -10z m1219 -240 c182 -1 202 -3 211 -19 11 -21 17 -406 6 -438
-4 -12 -19 -24 -34 -28 -42 -10 -394 -6 -407 5 -7 5 -14 7 -17 5 -3 -3 -11 8
-17 24 -9 20 -11 66 -7 148 3 65 6 153 6 196 0 64 3 80 20 97 12 12 24 18 29
16 4 -3 99 -6 210 -6z m1162 -5 c5 -4 9 -15 9 -26 0 -11 5 -17 10 -14 7 4 10
-65 10 -198 0 -180 -2 -207 -17 -226 -17 -21 -26 -22 -226 -23 -174 -2 -210 0
-223 13 -12 13 -15 52 -15 233 -1 195 1 219 17 234 15 15 42 17 221 15 112 -1
208 -5 214 -8z m962 -11 c17 -19 19 -44 20 -233 2 -168 -1 -211 -11 -211 -7 0
-11 -4 -8 -9 10 -16 -38 -21 -230 -21 -152 0 -194 3 -203 14 -8 10 -12 82 -13
230 0 196 1 218 17 234 16 15 43 17 214 17 187 0 197 -1 214 -21z m980 -5 c16
-20 18 -43 16 -217 -1 -203 -9 -242 -46 -249 -10 -2 -105 -3 -212 -4 -158 0
-196 2 -208 14 -13 12 -15 54 -15 232 0 194 2 218 18 233 15 15 43 17 223 15
200 -2 206 -2 224 -24z m-1930 -4220 c15 -19 17 -46 17 -226 0 -133 -3 -202
-10 -198 -6 4 -10 -5 -10 -19 0 -14 -6 -26 -12 -27 -7 0 -74 -1 -148 -1 l-135
-1 120 -7 c118 -6 117 -6 -60 -7 -99 -1 -171 2 -160 6 17 7 17 8 -8 13 -16 3
-27 1 -27 -6 0 -5 -7 -3 -16 6 -14 13 -16 47 -15 230 0 209 4 253 22 242 5 -3
9 1 9 8 0 10 42 12 207 10 197 -2 209 -4 226 -23z m937 19 c0 -4 7 -14 16 -22
23 -24 23 -441 0 -464 -9 -9 -16 -12 -16 -7 0 6 -78 10 -200 10 -122 0 -200
-4 -200 -10 0 -5 -7 -2 -16 7 -14 14 -16 46 -15 239 1 194 3 224 18 238 14 14
47 16 215 16 109 0 198 -3 198 -7z m997 -28 c9 -18 13 -82 13 -220 -1 -206 -4
-220 -48 -234 -12 -4 -22 -12 -22 -17 0 -5 -35 -8 -77 -8 -62 1 -71 3 -43 9
22 5 -20 8 -111 8 -81 -1 -154 4 -164 9 -17 10 -18 28 -19 227 -1 119 2 216 7
216 4 0 7 6 7 13 0 29 23 32 232 27 l212 -5 13 -25z m-2909 5 c23 -24 23 -29
23 -231 0 -176 -2 -209 -16 -224 -10 -11 -24 -16 -37 -12 -14 3 -19 1 -14 -6
5 -9 -15 -12 -74 -12 -55 0 -79 3 -75 11 5 7 -30 9 -112 7 -150 -4 -148 -5
-156 134 -7 144 -1 307 14 335 12 23 13 23 218 23 205 0 206 0 229 -25z"/>
</g>
</svg>
